<svg xmlns="http://www.w3.org/2000/svg" viewBox="0 0 425.5 124"><defs><style>.cls-1{fill:#33012a;}.cls-2{fill:none;stroke:#f63575;stroke-miterlimit:10;stroke-width:6px;}.cls-3,.cls-4{fill:#f63575;}.cls-4{font-size:72px;font-family:Baby-blocks, Baby blocks;}</style></defs><title>Asset 9</title><g id="Layer_2" data-name="Layer 2"><g id="Save"><rect class="cls-1" x="6" y="20.5" width="400" height="100"/><polygon class="cls-1" points="22.5 2.5 10.5 17.5 410.5 17.5 425.5 5.5 22.5 2.5"/><polygon class="cls-1" points="406.5 17.5 406.5 117.5 418.5 105.5 418.5 5.5 406.5 17.5"/><rect class="cls-2" x="3" y="21" width="400" height="100"/><rect class="cls-3" x="6" y="12" width="6" height="6"/><rect class="cls-3" x="12" y="6" width="6" height="6"/><path class="cls-2" d="M18,3h0Z"/><rect class="cls-3" x="406" y="12" width="6" height="6"/><rect class="cls-3" x="412" y="6" width="6" height="6"/><path class="cls-2" d="M421,6V6Z"/><rect class="cls-3" x="406" y="112" width="6" height="6"/><rect class="cls-3" x="412" y="106" width="6" height="6"/><text class="cls-4" transform="translate(155.38 81.3)">jpg</text></g></g></svg>