<svg xmlns="http://www.w3.org/2000/svg" viewBox="0 0 424 124"><defs><style>.cls-1{fill:#33012a;}.cls-2{fill:none;stroke:#f63575;stroke-miterlimit:10;stroke-width:6px;}.cls-3,.cls-4{fill:#f63575;}.cls-4{font-size:72px;font-family:Baby-blocks, Baby blocks;}</style></defs><title>Asset 15</title><g id="Layer_2" data-name="Layer 2"><g id="Main"><polygon class="cls-1" points="19.5 4 7.5 19 407.5 19 422.5 7 19.5 4"/><polygon class="cls-1" points="407.5 19 407.5 119 419.5 107 419.5 7 407.5 19"/><rect class="cls-1" x="4" y="21.5" width="400" height="100"/><rect class="cls-2" x="3" y="21" width="400" height="100"/><rect class="cls-3" x="6" y="12" width="6" height="6"/><rect class="cls-3" x="12" y="6" width="6" height="6"/><path class="cls-2" d="M18,3h0Z"/><rect class="cls-3" x="406" y="12" width="6" height="6"/><rect class="cls-3" x="412" y="6" width="6" height="6"/><path class="cls-2" d="M421,6V6Z"/><rect class="cls-3" x="406" y="112" width="6" height="6"/><rect class="cls-3" x="412" y="106" width="6" height="6"/><text class="cls-4" transform="translate(83.38 81.3)">sign out</text></g></g></svg>