<svg xmlns="http://www.w3.org/2000/svg" viewBox="0 0 424 124"><defs><style>.cls-1{fill:#33012a;}.cls-2{fill:none;stroke:#d1e957;stroke-miterlimit:10;stroke-width:6px;}.cls-3{font-size:72px;font-family:Baby-blocks, Baby blocks;}.cls-3,.cls-4{fill:#d1e957;}</style></defs><title>Asset 14</title><g id="Layer_2" data-name="Layer 2"><g id="Main"><rect class="cls-1" x="3" y="20.5" width="400" height="100"/><rect class="cls-2" x="3" y="21" width="400" height="100"/><polygon class="cls-1" points="18.5 3 6.5 18 406.5 18 421.5 6 18.5 3"/><polygon class="cls-1" points="406.5 18 406.5 118 418.5 106 418.5 6 406.5 18"/><text class="cls-3" transform="translate(52.63 81.3)">create new</text><rect class="cls-4" x="6" y="12" width="6" height="6"/><rect class="cls-4" x="12" y="6" width="6" height="6"/><path class="cls-2" d="M18,3h0Z"/><rect class="cls-4" x="406" y="12" width="6" height="6"/><rect class="cls-4" x="412" y="6" width="6" height="6"/><path class="cls-2" d="M421,6V6Z"/><rect class="cls-4" x="406" y="112" width="6" height="6"/><rect class="cls-4" x="412" y="106" width="6" height="6"/></g></g></svg>