<svg xmlns="http://www.w3.org/2000/svg" viewBox="0 0 424 124"><defs><style>.cls-1{fill:#33012a;}.cls-2{fill:none;stroke:#f63575;stroke-miterlimit:10;stroke-width:6px;}.cls-3,.cls-4{fill:#f63575;}.cls-4{font-size:72px;font-family:Baby-blocks, Baby blocks;}</style></defs><title>save</title><g id="Layer_2" data-name="Layer 2"><g id="Create"><g id="save"><rect class="cls-1" x="3.5" y="21" width="400" height="100"/><polygon class="cls-1" points="20 3 8 18 408 18 423 6 20 3"/><polygon class="cls-1" points="406 18 406 118 418 106 418 6 406 18"/><rect class="cls-2" x="3" y="21" width="400" height="100"/><rect class="cls-3" x="6" y="12" width="6" height="6"/><rect class="cls-3" x="12" y="6" width="6" height="6"/><path class="cls-2" d="M18,3h0Z"/><rect class="cls-3" x="406" y="12" width="6" height="6"/><rect class="cls-3" x="412" y="6" width="6" height="6"/><path class="cls-2" d="M421,6V6Z"/><rect class="cls-3" x="406" y="112" width="6" height="6"/><rect class="cls-3" x="412" y="106" width="6" height="6"/><text class="cls-4" transform="translate(76.63 81.3)">download</text></g></g></g></svg>